<?xml version="1.0" encoding="UTF-8" standalone="no"?>
<svg
   version="1.1"
   width="256"
   height="256"
   viewBox="0 0 256 256"
   xml:space="preserve"
   id="svg10"
   sodipodi:docname="down-arrow-6426hover.svg"
   inkscape:version="1.2.2 (732a01da63, 2022-12-09)"
   xmlns:inkscape="http://www.inkscape.org/namespaces/inkscape"
   xmlns:sodipodi="http://sodipodi.sourceforge.net/DTD/sodipodi-0.dtd"
   xmlns="http://www.w3.org/2000/svg"
   xmlns:svg="http://www.w3.org/2000/svg"><sodipodi:namedview
   id="namedview12"
   pagecolor="#ffffff"
   bordercolor="#000000"
   borderopacity="0.25"
   inkscape:showpageshadow="2"
   inkscape:pageopacity="0.0"
   inkscape:pagecheckerboard="0"
   inkscape:deskcolor="#d1d1d1"
   showgrid="false"
   inkscape:zoom="3.4257812"
   inkscape:cx="126.39453"
   inkscape:cy="132.52452"
   inkscape:window-width="1920"
   inkscape:window-height="1057"
   inkscape:window-x="-8"
   inkscape:window-y="-8"
   inkscape:window-maximized="1"
   inkscape:current-layer="svg10" />

<defs
   id="defs2">

	
	
</defs>
<path
   d="m 126.98088,-0.34483188 c 69.83693,0 126.45,56.61306988 126.45,126.45000188 0,69.83693 -56.61307,126.45 -126.45,126.45 -69.836929,0 -126.44999925,-56.61307 -126.44999925,-126.45 0,-69.836932 56.61307025,-126.45000188 126.44999925,-126.45000188 z"
   style="fill:#ff0000;fill-rule:nonzero;stroke:none;stroke-width:2.81;stroke-linecap:butt;stroke-linejoin:miter;stroke-miterlimit:10;stroke-dasharray:none"
   stroke-linecap="round"
   id="path4"
   inkscape:transform-center-x="2.9190422"
   inkscape:transform-center-y="-6.713797" /><path
   d="m 76.889337,145.91527 42.700763,37.26341 c 0.18546,0.16298 0.39621,0.27819 0.59291,0.42712 0.26414,0.20232 0.52266,0.40464 0.80366,0.58167 0.33158,0.21075 0.67721,0.38497 1.02565,0.55638 0.27819,0.13769 0.54795,0.28381 0.83738,0.39902 0.40464,0.16017 0.82052,0.27257 1.2364,0.38497 0.26133,0.0702 0.50861,0.16017 0.77837,0.21075 0.69969,0.13488 1.40781,0.21356 2.11874,0.21356 0.71093,0 1.41905,-0.0787 2.11874,-0.21356 0.26695,-0.0506 0.51423,-0.1405 0.77556,-0.21075 0.41869,-0.1124 0.83176,-0.2248 1.23921,-0.38497 0.28943,-0.11521 0.55919,-0.26133 0.83738,-0.39902 0.34844,-0.17141 0.69126,-0.34563 1.02284,-0.55638 0.281,-0.17984 0.54233,-0.37935 0.80647,-0.58167 0.19389,-0.14893 0.40464,-0.26414 0.5901,-0.42712 l 42.69795,-37.26341 c 4.67865,-4.08012 5.15916,-11.18099 1.07904,-15.85964 -4.08293,-4.67865 -11.18099,-5.15916 -15.85964,-1.07904 L 138.2204,149.98415 V 77.503 c 0,-6.20729 -5.03271,-11.24 -11.24,-11.24 -6.20729,0 -11.24,5.03271 -11.24,11.24 v 72.48115 L 91.669935,128.9794 c -4.67584,-4.08293 -11.7739,-3.5968 -15.859638,1.07904 -4.08574,4.67584 -3.59961,11.77671 1.07904,15.85683 z"
   style="fill:#ffffff;fill-rule:nonzero;stroke:none;stroke-width:2.81;stroke-linecap:butt;stroke-linejoin:miter;stroke-miterlimit:10;stroke-dasharray:none"
   stroke-linecap="round"
   id="path6"
   inkscape:transform-center-x="2.9201808"
   inkscape:transform-center-y="-6.7109872" />
</svg>
